<?xml version="1.0" encoding="UTF-8"?>
<svg width="39px" height="40px" viewBox="0 0 39 40" version="1.1" xmlns="http://www.w3.org/2000/svg" xmlns:xlink="http://www.w3.org/1999/xlink">
    <!-- Generator: Sketch 51.2 (57519) - http://www.bohemiancoding.com/sketch -->
    <title>Fill 1</title>
    <desc>Created with Sketch.</desc>
    <defs>
        <filter x="-2.9%" y="-4.7%" width="105.3%" height="112.4%" filterUnits="objectBoundingBox" id="filter-1">
            <feOffset dx="0" dy="5" in="SourceAlpha" result="shadowOffsetOuter1"></feOffset>
            <feGaussianBlur stdDeviation="6" in="shadowOffsetOuter1" result="shadowBlurOuter1"></feGaussianBlur>
            <feColorMatrix values="0 0 0 0 0   0 0 0 0 0   0 0 0 0 0  0 0 0 0.192453578 0" type="matrix" in="shadowBlurOuter1" result="shadowMatrixOuter1"></feColorMatrix>
            <feMerge>
                <feMergeNode in="shadowMatrixOuter1"></feMergeNode>
                <feMergeNode in="SourceGraphic"></feMergeNode>
            </feMerge>
        </filter>
    </defs>
    <g id="Global" stroke="none" stroke-width="1" fill="none" fill-rule="evenodd">
        <g id="08-Global---Content-Reports-V2" transform="translate(-817.000000, -712.000000)" fill="#50AA47">
            <g id="Group" filter="url(#filter-1)" transform="translate(422.000000, 425.000000)">
                <g id="Group-3" transform="translate(407.000000, 289.000000)">
                    <path d="M12.7517564,5.49297536 L11.2412178,5.49297536 L11.2412178,4.75527044 C11.2412178,4.52107766 11.1738874,4.33665199 11.0392266,4.20199119 C10.9045658,4.0673304 10.7259968,4 10.5035129,4 C10.2693201,4 10.0848944,4.0673304 9.95023363,4.20199119 C9.81557283,4.33665199 9.74824468,4.52107766 9.74824468,4.75527044 L9.74824468,5.49297536 L5.25175756,5.49297536 L5.25175756,4.75527044 C5.25175756,4.52107766 5.18442717,4.33665199 5.04976637,4.20199119 C4.91510557,4.0673304 4.73067991,4 4.49648712,4 C4.27400319,4 4.09543419,4.0673304 3.9607734,4.20199119 C3.8261126,4.33665199 3.7587822,4.52107766 3.7587822,4.75527044 L3.7587822,5.49297536 L2.24824356,5.49297536 C1.61592191,5.49297536 1.08314035,5.70960037 0.649882904,6.14285939 C0.216625461,6.57611616 0,7.10889817 0,7.74121892 L0,18.2447318 C0,18.8770535 0.216625461,19.409835 0.649882904,19.8430925 C1.08314035,20.2763499 1.61592191,20.4929754 2.24824356,20.4929754 L12.7517564,20.4929754 C13.3840772,20.4929754 13.9168592,20.2763499 14.350116,19.8430925 C14.783375,19.409835 15,18.8770535 15,18.2447318 L15,7.74121892 C15,7.10889817 14.783375,6.57611616 14.350116,6.14285939 C13.9168592,5.70960037 13.3840772,5.49297536 12.7517564,5.49297536 Z M2.24824356,7.003514 L3.7587822,7.003514 L3.7587822,7.74121892 C3.7587822,7.97541171 3.8261126,8.15983738 3.9607734,8.29449817 C4.09543419,8.42915897 4.27400319,8.49648712 4.49648712,8.49648712 C4.73067991,8.49648712 4.91510557,8.42915897 5.04976637,8.29449817 C5.18442717,8.15983738 5.25175756,7.97541171 5.25175756,7.74121892 L5.25175756,7.003514 L9.74824468,7.003514 L9.74824468,7.74121892 C9.74824468,7.97541171 9.81557283,8.15983738 9.95023363,8.29449817 C10.0848944,8.42915897 10.2693201,8.49648712 10.5035129,8.49648712 C10.7259968,8.49648712 10.9045658,8.42915897 11.0392266,8.29449817 C11.1738874,8.15983738 11.2412178,7.97541171 11.2412178,7.74121892 L11.2412178,7.003514 L12.7517564,7.003514 C12.9742404,7.003514 13.1528094,7.0708444 13.2874702,7.2055052 C13.422131,7.340166 13.4894614,7.51873499 13.4894614,7.74121892 L13.4894614,9.98946248 L1.51053864,9.98946248 L1.51053864,7.74121892 C1.51053864,7.51873499 1.57786814,7.340166 1.71252939,7.2055052 C1.84719041,7.0708444 2.02576007,7.003514 2.24824356,7.003514 Z M12.7517564,18.9824367 L2.24824356,18.9824367 C2.02576007,18.9824367 1.84719041,18.9151072 1.71252939,18.780446 C1.57786814,18.645785 1.51053864,18.4672153 1.51053864,18.2447318 L1.51053864,11.5000011 L13.4894614,11.5000011 L13.4894614,18.2447318 C13.4894614,18.4672153 13.422131,18.645785 13.2874702,18.780446 C13.1528094,18.9151072 12.9742404,18.9824367 12.7517564,18.9824367 Z" id="Fill-1"></path>
                </g>
            </g>
        </g>
    </g>
</svg>