<?xml version="1.0" encoding="UTF-8"?>
<svg width="21px" height="21px" viewBox="0 0 21 21" version="1.1" xmlns="http://www.w3.org/2000/svg" xmlns:xlink="http://www.w3.org/1999/xlink">
    <!-- Generator: sketchtool 51.2 (57519) - http://www.bohemiancoding.com/sketch -->
    <title>E5716BFF-1A7C-4931-B17E-E5109B65592B</title>
    <desc>Created with sketchtool.</desc>
    <defs></defs>
    <g id="Global" stroke="none" stroke-width="1" fill="none" fill-rule="evenodd">
        <g id="01-Global---Home-v2" transform="translate(-1365.000000, -520.000000)" fill="#FFFFFF">
            <path d="M1382.89375,523.10625 C1380.85207,521.035406 1378.38751,520 1375.5,520 C1372.61249,520 1370.14063,521.028115 1368.08437,523.084374 C1366.02811,525.140635 1365,527.612486 1365,530.5 C1365,533.387514 1366.02811,535.859365 1368.08437,537.915626 C1370.14063,539.971885 1372.61249,541 1375.5,541 C1378.38751,541 1380.85937,539.971885 1382.91563,537.915626 C1384.97188,535.859365 1386,533.387514 1386,530.5 C1386,527.612486 1384.96459,525.147926 1382.89375,523.10625 Z M1382.0212,537.021198 C1380.21714,538.825257 1378.04343,539.727273 1375.5,539.727273 C1372.95657,539.727273 1370.78286,538.825257 1368.9788,537.021198 C1367.17474,535.217138 1366.27273,533.043428 1366.27273,530.5 C1366.27273,527.956572 1367.17474,525.782862 1368.9788,523.978802 C1370.78286,522.174743 1372.95657,521.272727 1375.5,521.272727 C1378.04343,521.272727 1380.21714,522.174743 1382.0212,523.978802 C1383.82526,525.782862 1384.72727,527.956572 1384.72727,530.5 C1384.72727,533.043428 1383.82526,535.217138 1382.0212,537.021198 Z M1379.04688,525.357247 L1375.21172,529.182132 L1371.76879,525.357247 C1371.42014,525.009528 1371.08602,525.002284 1370.76642,525.335514 C1370.44682,525.668746 1370.44682,525.994726 1370.76642,526.313469 L1374.20935,530.138354 L1370.33061,534.050168 C1370.01101,534.36891 1370.01101,534.69489 1370.33061,535.028123 C1370.65021,535.361352 1370.9698,535.354108 1371.2894,535.006389 L1375.12456,531.181504 L1378.56749,535.006389 C1378.91614,535.354108 1379.25026,535.361352 1379.56986,535.028123 C1379.88946,534.69489 1379.88946,534.36891 1379.56986,534.050168 L1376.12693,530.225283 L1380.00567,526.313469 C1380.35433,525.994726 1380.36159,525.668746 1380.02747,525.335514 C1379.69334,525.002284 1379.36648,525.009528 1379.04688,525.357247 Z" id="Fill-1"></path>
        </g>
    </g>
</svg>