<?xml version="1.0" encoding="UTF-8"?>
<svg width="33px" height="33px" viewBox="0 0 33 33" version="1.1" xmlns="http://www.w3.org/2000/svg" xmlns:xlink="http://www.w3.org/1999/xlink">
    <!-- Generator: Sketch 51 (57462) - http://www.bohemiancoding.com/sketch -->
    <title>Fill 1</title>
    <desc>Created with Sketch.</desc>
    <defs></defs>
    <g id="Global" stroke="none" stroke-width="1" fill="none" fill-rule="evenodd">
        <g id="07-Global---About-Us-V2-Copy-2" transform="translate(-1207.000000, -2021.000000)">
            <rect fill="#FFFFFF" x="0" y="0" width="1400" height="4089"></rect>
            <path d="M1235.11875,2025.88125 C1231.9104,2022.62707 1228.03752,2021 1223.5,2021 C1218.96248,2021 1215.07814,2022.61561 1211.84687,2025.84687 C1208.61561,2029.07814 1207,2032.96248 1207,2037.5 C1207,2042.03752 1208.61561,2045.92186 1211.84687,2049.15313 C1215.07814,2052.38439 1218.96248,2054 1223.5,2054 C1228.03752,2054 1231.92186,2052.38439 1235.15313,2049.15313 C1238.38439,2045.92186 1240,2042.03752 1240,2037.5 C1240,2032.96248 1238.37293,2029.0896 1235.11875,2025.88125 Z M1233.7476,2047.7476 C1230.91265,2050.58255 1227.49682,2052 1223.5,2052 C1219.50318,2052 1216.08735,2050.58255 1213.2524,2047.7476 C1210.41745,2044.91265 1209,2041.49682 1209,2037.5 C1209,2033.50318 1210.41745,2030.08735 1213.2524,2027.2524 C1216.08735,2024.41745 1219.50318,2023 1223.5,2023 C1227.49682,2023 1230.91265,2024.41745 1233.7476,2027.2524 C1236.58255,2030.08735 1238,2033.50318 1238,2037.5 C1238,2041.49682 1236.58255,2044.91265 1233.7476,2047.7476 Z M1229.07367,2029.41853 L1223.04699,2035.42907 L1217.63668,2029.41853 C1217.08879,2028.87212 1216.56375,2028.86073 1216.06152,2029.38438 C1215.55929,2029.90803 1215.55929,2030.42028 1216.06152,2030.92117 L1221.47184,2036.9317 L1215.37667,2043.07883 C1214.87444,2043.57972 1214.87444,2044.09197 1215.37667,2044.61562 C1215.8789,2045.13927 1216.38111,2045.12788 1216.88334,2044.58147 L1222.91002,2038.57093 L1228.32034,2044.58147 C1228.86822,2045.12788 1229.39327,2045.13927 1229.89549,2044.61562 C1230.39772,2044.09197 1230.39772,2043.57972 1229.89549,2043.07883 L1224.48518,2037.0683 L1230.58034,2030.92117 C1231.12823,2030.42028 1231.13964,2029.90803 1230.61459,2029.38438 C1230.08953,2028.86073 1229.5759,2028.87212 1229.07367,2029.41853 Z" id="Fill-1" fill="#409737"></path>
        </g>
    </g>
</svg>
