<?xml version="1.0" encoding="UTF-8"?>
<svg width="39px" height="33px" viewBox="0 0 39 33" version="1.1" xmlns="http://www.w3.org/2000/svg" xmlns:xlink="http://www.w3.org/1999/xlink">
    <!-- Generator: Sketch 48.2 (47327) - http://www.bohemiancoding.com/sketch -->
    <title>icon-quotes</title>
    <desc>Created with Sketch.</desc>
    <defs></defs>
    <g id="02-Global---News-Detail" stroke="none" stroke-width="1" fill="none" fill-rule="evenodd" transform="translate(-273.000000, -1561.000000)">
        <g id="section_news" transform="translate(0.000000, 102.000000)" fill="#69B661">
            <path d="M291,1478.5 L291,1487.5 C291,1488.75001 290.562507,1489.8125 289.6875,1490.6875 C288.812498,1491.5625 287.750008,1492 286.500004,1492 L277.500001,1492 C276.249994,1492 275.187505,1491.5625 274.3125,1490.6875 C273.437496,1489.8125 273,1488.75001 273,1487.5 L273,1471 C273,1469.37499 273.316403,1467.82423 273.949219,1466.34765 C274.582035,1464.87109 275.437495,1463.59376 276.515626,1462.51563 C277.593756,1461.43749 278.871086,1460.58204 280.347659,1459.94922 C281.824227,1459.3164 283.374994,1459 285,1459 L286.500004,1459 C286.906254,1459 287.257815,1459.14843 287.554687,1459.44531 C287.851564,1459.74219 288.000003,1460.09375 288.000003,1460.5 L288.000003,1463.5 C288.000003,1463.90625 287.851564,1464.25781 287.554687,1464.55468 C287.257815,1464.85156 286.906254,1465 286.500004,1465 L285,1465 C283.343746,1465 281.929695,1465.58593 280.757816,1466.75781 C279.585932,1467.92969 279,1469.34374 279,1471 L279,1471.75 C279,1472.375 279.218747,1472.90625 279.65625,1473.34375 C280.093754,1473.78125 280.624996,1474 281.250003,1474 L286.500004,1474 C287.750008,1474 288.812498,1474.43749 289.6875,1475.3125 C290.562507,1476.1875 291,1477.24999 291,1478.5 Z M312,1478.5 L312,1487.5 C312,1488.75001 311.562507,1489.8125 310.6875,1490.6875 C309.812498,1491.5625 308.750008,1492 307.500004,1492 L298.500001,1492 C297.249992,1492 296.187502,1491.5625 295.3125,1490.6875 C294.437493,1489.8125 294,1488.75001 294,1487.5 L294,1471 C294,1469.37499 294.316402,1467.82423 294.949221,1466.34765 C295.582035,1464.87109 296.437497,1463.59376 297.515626,1462.51563 C298.593756,1461.43749 299.871086,1460.58204 301.347659,1459.94922 C302.824227,1459.3164 304.374994,1459 306,1459 L307.500004,1459 C307.906254,1459 308.257815,1459.14843 308.554687,1459.44531 C308.851564,1459.74219 309.000003,1460.09375 309.000003,1460.5 L309.000003,1463.5 C309.000003,1463.90625 308.851564,1464.25781 308.554687,1464.55468 C308.257815,1464.85156 307.906254,1465 307.500004,1465 L306,1465 C304.343746,1465 302.929695,1465.58593 301.757816,1466.75781 C300.585932,1467.92969 300,1469.34374 300,1471 L300,1471.75 C300,1472.375 300.218747,1472.90625 300.65625,1473.34375 C301.093754,1473.78125 301.624996,1474 302.250003,1474 L307.500004,1474 C308.750008,1474 309.812498,1474.43749 310.6875,1475.3125 C311.562507,1476.1875 312,1477.24999 312,1478.5 Z" id="icon-quotes"></path>
        </g>
    </g>
</svg>