<?xml version="1.0" encoding="UTF-8"?>
<svg width="40px" height="40px" viewBox="0 0 40 40" version="1.1" xmlns="http://www.w3.org/2000/svg" xmlns:xlink="http://www.w3.org/1999/xlink">
    <!-- Generator: Sketch 48.2 (47327) - http://www.bohemiancoding.com/sketch -->
    <title>nav-arrow-l</title>
    <desc>Created with Sketch.</desc>
    <defs></defs>
    <g id="04-Global---Impact-V2" stroke="none" stroke-width="1" fill="none" fill-rule="evenodd" transform="translate(-130.000000, -2747.000000)">
        <g id="Group-19" transform="translate(130.000000, 2163.000000)" fill="#50AA47">
            <path d="M22.0731733,603.979655 L17.2764202,598.77111 C17.08672,598.554086 16.9918699,598.303159 16.9918699,598.018314 C16.9918699,597.733469 17.08672,597.482537 17.2764202,597.265518 C17.4932241,597.07562 17.7439011,596.980673 18.0284566,596.980673 C18.313012,596.980673 18.5636839,597.07562 18.7804878,597.265518 L24.5934933,603.247204 C24.8102972,603.437102 24.9186966,603.681247 24.9186966,603.979655 C24.9186966,604.278063 24.8102972,604.522209 24.5934933,604.712107 L18.7804878,610.693793 C18.5636839,610.910817 18.313012,611.019327 18.0284566,611.019327 C17.7439011,611.019327 17.4932241,610.910817 17.2764202,610.693793 C17.08672,610.5039 16.9918699,610.259749 16.9918699,609.961346 C16.9918699,609.662938 17.08672,609.405225 17.2764202,609.1882 L22.0731733,603.979655 Z M20,584 C22.7642433,584 25.3590686,584.522209 27.7845541,585.566637 C30.2100397,586.611064 32.32384,588.035258 34.1260176,589.839268 C35.9281951,591.643279 37.3577158,593.75923 38.4146315,596.187183 C39.4715525,598.615135 40,601.2126 40,603.979655 C40,606.746711 39.4715525,609.344175 38.4146315,611.772128 C37.3577158,614.200081 35.9281951,616.316032 34.1260176,618.120042 C32.32384,619.924051 30.2100397,621.355031 27.7845541,622.413021 C25.3590686,623.471012 22.7642433,624 20,624 C17.2357567,624 14.6409314,623.471012 12.2154459,622.413021 C9.78996033,621.355031 7.67616,619.924051 5.87398244,618.120042 C4.07180696,616.316032 2.64228163,614.200081 1.58536585,611.772128 C0.528450081,609.344175 0,606.746711 0,603.979655 C0,601.2126 0.528450081,598.615135 1.58536585,596.187183 C2.64228163,593.75923 4.07180696,591.643279 5.87398244,589.839268 C7.67616,588.035258 9.78996033,586.611064 12.2154459,585.566637 C14.6409314,584.522209 17.2357567,584 20,584 Z M20,622.03662 C22.4953397,622.03662 24.8294262,621.566521 27.0023351,620.626308 C29.175244,619.686096 31.0747574,618.402092 32.7009346,616.774266 C34.3271118,615.146435 35.6168188,613.237973 36.5700935,611.048822 C37.5233681,608.859665 38,606.516188 38,604.01831 C38,601.548496 37.5233681,599.219051 36.5700935,597.0299 C35.6168188,594.840749 34.3271118,592.932287 32.7009346,591.304456 C31.0747574,589.676624 29.175244,588.385605 27.0023351,587.431361 C24.8294262,586.477117 22.4953397,586 20,586 C17.5046603,586 15.1705738,586.477117 12.9976649,587.431361 C10.824756,588.385605 8.91823372,589.676624 7.27803873,591.304456 C5.63784374,592.932287 4.3481356,594.840749 3.40887877,597.0299 C2.46962141,599.219051 2,601.548496 2,604.01831 C2,606.516188 2.46962141,608.859665 3.40887877,611.048822 C4.3481356,613.237973 5.63784374,615.146435 7.27803873,616.774266 C8.91823372,618.402092 10.824756,619.686096 12.9976649,620.626308 C15.1705738,621.566521 17.5046603,622.03662 20,622.03662 Z" id="nav-arrow-l" transform="translate(20.000000, 604.000000) rotate(-180.000000) translate(-20.000000, -604.000000) "></path>
        </g>
    </g>
</svg>