<?xml version="1.0" encoding="UTF-8"?>
<svg width="40px" height="40px" viewBox="0 0 40 40" version="1.1" xmlns="http://www.w3.org/2000/svg" xmlns:xlink="http://www.w3.org/1999/xlink">
    <!-- Generator: Sketch 48.2 (47327) - http://www.bohemiancoding.com/sketch -->
    <title>nav-arrow-r</title>
    <desc>Created with Sketch.</desc>
    <defs></defs>
    <g id="04-Global---Impact-V2" stroke="none" stroke-width="1" fill="none" fill-rule="evenodd" transform="translate(-190.000000, -2747.000000)">
        <g id="Group-19" transform="translate(130.000000, 2163.000000)" fill="#50AA47">
            <path d="M82.0731733,603.979655 L77.2764202,598.77111 C77.08672,598.554086 76.9918699,598.303159 76.9918699,598.018314 C76.9918699,597.733469 77.08672,597.482537 77.2764202,597.265518 C77.4932241,597.07562 77.7439011,596.980673 78.0284566,596.980673 C78.313012,596.980673 78.5636839,597.07562 78.7804878,597.265518 L84.5934933,603.247204 C84.8102972,603.437102 84.9186966,603.681247 84.9186966,603.979655 C84.9186966,604.278063 84.8102972,604.522209 84.5934933,604.712107 L78.7804878,610.693793 C78.5636839,610.910817 78.313012,611.019327 78.0284566,611.019327 C77.7439011,611.019327 77.4932241,610.910817 77.2764202,610.693793 C77.08672,610.5039 76.9918699,610.259749 76.9918699,609.961346 C76.9918699,609.662938 77.08672,609.405225 77.2764202,609.1882 L82.0731733,603.979655 Z M80,584 C82.7642433,584 85.3590686,584.522209 87.7845541,585.566637 C90.2100397,586.611064 92.32384,588.035258 94.1260176,589.839268 C95.9281951,591.643279 97.3577158,593.75923 98.4146315,596.187183 C99.4715525,598.615135 100,601.2126 100,603.979655 C100,606.746711 99.4715525,609.344175 98.4146315,611.772128 C97.3577158,614.200081 95.9281951,616.316032 94.1260176,618.120042 C92.32384,619.924051 90.2100397,621.355031 87.7845541,622.413021 C85.3590686,623.471012 82.7642433,624 80,624 C77.2357567,624 74.6409314,623.471012 72.2154459,622.413021 C69.7899603,621.355031 67.67616,619.924051 65.8739824,618.120042 C64.071807,616.316032 62.6422816,614.200081 61.5853659,611.772128 C60.5284501,609.344175 60,606.746711 60,603.979655 C60,601.2126 60.5284501,598.615135 61.5853659,596.187183 C62.6422816,593.75923 64.071807,591.643279 65.8739824,589.839268 C67.67616,588.035258 69.7899603,586.611064 72.2154459,585.566637 C74.6409314,584.522209 77.2357567,584 80,584 Z M80,622.03662 C82.4953397,622.03662 84.8294262,621.566521 87.0023351,620.626308 C89.175244,619.686096 91.0747574,618.402092 92.7009346,616.774266 C94.3271118,615.146435 95.6168188,613.237973 96.5700935,611.048822 C97.5233681,608.859665 98,606.516188 98,604.01831 C98,601.548496 97.5233681,599.219051 96.5700935,597.0299 C95.6168188,594.840749 94.3271118,592.932287 92.7009346,591.304456 C91.0747574,589.676624 89.175244,588.385605 87.0023351,587.431361 C84.8294262,586.477117 82.4953397,586 80,586 C77.5046603,586 75.1705738,586.477117 72.9976649,587.431361 C70.824756,588.385605 68.9182337,589.676624 67.2780387,591.304456 C65.6378437,592.932287 64.3481356,594.840749 63.4088788,597.0299 C62.4696214,599.219051 62,601.548496 62,604.01831 C62,606.516188 62.4696214,608.859665 63.4088788,611.048822 C64.3481356,613.237973 65.6378437,615.146435 67.2780387,616.774266 C68.9182337,618.402092 70.824756,619.686096 72.9976649,620.626308 C75.1705738,621.566521 77.5046603,622.03662 80,622.03662 Z" id="nav-arrow-r"></path>
        </g>
    </g>
</svg>