<?xml version="1.0" encoding="UTF-8"?>
<svg width="40px" height="40px" viewBox="0 0 40 40" version="1.1" xmlns="http://www.w3.org/2000/svg" xmlns:xlink="http://www.w3.org/1999/xlink">
    <!-- Generator: sketchtool 51.2 (57519) - http://www.bohemiancoding.com/sketch -->
    <title>73B44E06-5657-45CC-A8ED-DAE1559FF862</title>
    <desc>Created with sketchtool.</desc>
    <defs></defs>
    <g id="Global" stroke="none" stroke-width="1" fill="none" fill-rule="evenodd">
        <g id="11.1-Global---Who-owns-poverty?Page-preview" transform="translate(-1320.000000, -633.000000)" fill="#FFFFFF">
            <path d="M1342.07317,652.979655 L1337.27642,647.77111 C1337.08672,647.554086 1336.99187,647.303159 1336.99187,647.018314 C1336.99187,646.733469 1337.08672,646.482537 1337.27642,646.265518 C1337.49322,646.07562 1337.7439,645.980673 1338.02846,645.980673 C1338.31301,645.980673 1338.56368,646.07562 1338.78049,646.265518 L1344.59349,652.247204 C1344.8103,652.437102 1344.9187,652.681247 1344.9187,652.979655 C1344.9187,653.278063 1344.8103,653.522209 1344.59349,653.712107 L1338.78049,659.693793 C1338.56368,659.910817 1338.31301,660.019327 1338.02846,660.019327 C1337.7439,660.019327 1337.49322,659.910817 1337.27642,659.693793 C1337.08672,659.5039 1336.99187,659.259749 1336.99187,658.961346 C1336.99187,658.662938 1337.08672,658.405225 1337.27642,658.1882 L1342.07317,652.979655 Z M1340,633 C1342.76424,633 1345.35907,633.522209 1347.78455,634.566637 C1350.21004,635.611064 1352.32384,637.035258 1354.12602,638.839268 C1355.9282,640.643279 1357.35772,642.75923 1358.41463,645.187183 C1359.47155,647.615135 1360,650.2126 1360,652.979655 C1360,655.746711 1359.47155,658.344175 1358.41463,660.772128 C1357.35772,663.200081 1355.9282,665.316032 1354.12602,667.120042 C1352.32384,668.924051 1350.21004,670.355031 1347.78455,671.413021 C1345.35907,672.471012 1342.76424,673 1340,673 C1337.23576,673 1334.64093,672.471012 1332.21545,671.413021 C1329.78996,670.355031 1327.67616,668.924051 1325.87398,667.120042 C1324.07181,665.316032 1322.64228,663.200081 1321.58537,660.772128 C1320.52845,658.344175 1320,655.746711 1320,652.979655 C1320,650.2126 1320.52845,647.615135 1321.58537,645.187183 C1322.64228,642.75923 1324.07181,640.643279 1325.87398,638.839268 C1327.67616,637.035258 1329.78996,635.611064 1332.21545,634.566637 C1334.64093,633.522209 1337.23576,633 1340,633 Z M1340,671.03662 C1342.49534,671.03662 1344.82943,670.566521 1347.00234,669.626308 C1349.17524,668.686096 1351.07476,667.402092 1352.70093,665.774266 C1354.32711,664.146435 1355.61682,662.237973 1356.57009,660.048822 C1357.52337,657.859665 1358,655.516188 1358,653.01831 C1358,650.548496 1357.52337,648.219051 1356.57009,646.0299 C1355.61682,643.840749 1354.32711,641.932287 1352.70093,640.304456 C1351.07476,638.676624 1349.17524,637.385605 1347.00234,636.431361 C1344.82943,635.477117 1342.49534,635 1340,635 C1337.50466,635 1335.17057,635.477117 1332.99766,636.431361 C1330.82476,637.385605 1328.91823,638.676624 1327.27804,640.304456 C1325.63784,641.932287 1324.34814,643.840749 1323.40888,646.0299 C1322.46962,648.219051 1322,650.548496 1322,653.01831 C1322,655.516188 1322.46962,657.859665 1323.40888,660.048822 C1324.34814,662.237973 1325.63784,664.146435 1327.27804,665.774266 C1328.91823,667.402092 1330.82476,668.686096 1332.99766,669.626308 C1335.17057,670.566521 1337.50466,671.03662 1340,671.03662 Z" id="nav-arrow-r"></path>
        </g>
    </g>
</svg>