<?xml version="1.0" encoding="UTF-8"?>
<svg width="40px" height="40px" viewBox="0 0 40 40" version="1.1" xmlns="http://www.w3.org/2000/svg" xmlns:xlink="http://www.w3.org/1999/xlink">
    <!-- Generator: sketchtool 51.2 (57519) - http://www.bohemiancoding.com/sketch -->
    <title>866177EC-972A-4FCC-A1E0-FDD97CA4C4CC</title>
    <desc>Created with sketchtool.</desc>
    <defs></defs>
    <g id="Global" stroke="none" stroke-width="1" fill="none" fill-rule="evenodd">
        <g id="11.1-Global---Who-owns-poverty?Page-preview" transform="translate(-38.000000, -633.000000)" fill="#FFFFFF">
            <path d="M60.0731733,652.979655 L55.2764202,647.77111 C55.08672,647.554086 54.9918699,647.303159 54.9918699,647.018314 C54.9918699,646.733469 55.08672,646.482537 55.2764202,646.265518 C55.4932241,646.07562 55.7439011,645.980673 56.0284566,645.980673 C56.313012,645.980673 56.5636839,646.07562 56.7804878,646.265518 L62.5934933,652.247204 C62.8102972,652.437102 62.9186966,652.681247 62.9186966,652.979655 C62.9186966,653.278063 62.8102972,653.522209 62.5934933,653.712107 L56.7804878,659.693793 C56.5636839,659.910817 56.313012,660.019327 56.0284566,660.019327 C55.7439011,660.019327 55.4932241,659.910817 55.2764202,659.693793 C55.08672,659.5039 54.9918699,659.259749 54.9918699,658.961346 C54.9918699,658.662938 55.08672,658.405225 55.2764202,658.1882 L60.0731733,652.979655 Z M58,633 C60.7642433,633 63.3590686,633.522209 65.7845541,634.566637 C68.2100397,635.611064 70.32384,637.035258 72.1260176,638.839268 C73.9281951,640.643279 75.3577158,642.75923 76.4146315,645.187183 C77.4715525,647.615135 78,650.2126 78,652.979655 C78,655.746711 77.4715525,658.344175 76.4146315,660.772128 C75.3577158,663.200081 73.9281951,665.316032 72.1260176,667.120042 C70.32384,668.924051 68.2100397,670.355031 65.7845541,671.413021 C63.3590686,672.471012 60.7642433,673 58,673 C55.2357567,673 52.6409314,672.471012 50.2154459,671.413021 C47.7899603,670.355031 45.67616,668.924051 43.8739824,667.120042 C42.071807,665.316032 40.6422816,663.200081 39.5853659,660.772128 C38.5284501,658.344175 38,655.746711 38,652.979655 C38,650.2126 38.5284501,647.615135 39.5853659,645.187183 C40.6422816,642.75923 42.071807,640.643279 43.8739824,638.839268 C45.67616,637.035258 47.7899603,635.611064 50.2154459,634.566637 C52.6409314,633.522209 55.2357567,633 58,633 Z M58,671.03662 C60.4953397,671.03662 62.8294262,670.566521 65.0023351,669.626308 C67.175244,668.686096 69.0747574,667.402092 70.7009346,665.774266 C72.3271118,664.146435 73.6168188,662.237973 74.5700935,660.048822 C75.5233681,657.859665 76,655.516188 76,653.01831 C76,650.548496 75.5233681,648.219051 74.5700935,646.0299 C73.6168188,643.840749 72.3271118,641.932287 70.7009346,640.304456 C69.0747574,638.676624 67.175244,637.385605 65.0023351,636.431361 C62.8294262,635.477117 60.4953397,635 58,635 C55.5046603,635 53.1705738,635.477117 50.9976649,636.431361 C48.824756,637.385605 46.9182337,638.676624 45.2780387,640.304456 C43.6378437,641.932287 42.3481356,643.840749 41.4088788,646.0299 C40.4696214,648.219051 40,650.548496 40,653.01831 C40,655.516188 40.4696214,657.859665 41.4088788,660.048822 C42.3481356,662.237973 43.6378437,664.146435 45.2780387,665.774266 C46.9182337,667.402092 48.824756,668.686096 50.9976649,669.626308 C53.1705738,670.566521 55.5046603,671.03662 58,671.03662 Z" id="nav-arrow-l" transform="translate(58.000000, 653.000000) rotate(-180.000000) translate(-58.000000, -653.000000) "></path>
        </g>
    </g>
</svg>