<?xml version="1.0" encoding="UTF-8"?>
<svg width="24px" height="24px" viewBox="0 0 24 24" version="1.1" xmlns="http://www.w3.org/2000/svg" xmlns:xlink="http://www.w3.org/1999/xlink">
    <!-- Generator: Sketch 48.2 (47327) - http://www.bohemiancoding.com/sketch -->
    <title>nav-arrow-white-down</title>
    <desc>Created with Sketch.</desc>
    <defs></defs>
    <g id="08-Global---Participate-V2" stroke="none" stroke-width="1" fill="none" fill-rule="evenodd" transform="translate(-170.000000, -864.000000)">
        <path d="M182,864 C180.341454,864 178.784559,864.313325 177.329268,864.939982 C175.873976,865.566639 174.605696,866.421155 173.524389,867.503561 C172.443084,868.585968 171.585369,869.855538 170.95122,871.31231 C170.31707,872.769081 170,874.32756 170,875.987793 C170,877.648026 170.31707,879.206505 170.95122,880.663277 C171.585369,882.120049 172.443084,883.393688 173.524389,884.484232 C174.605696,885.574777 175.873976,886.433364 177.329268,887.060021 C178.784559,887.686677 180.341454,888 182,888 C183.658546,888 185.215441,887.686677 186.670732,887.060021 C188.126024,886.433364 189.394304,885.574777 190.475611,884.484232 C191.556917,883.393688 192.414629,882.120049 193.048779,880.663277 C193.682932,879.206505 194,877.648026 194,875.987793 C194,874.32756 193.682932,872.769081 193.048779,871.31231 C192.414629,869.855538 191.556917,868.585968 190.475611,867.503561 C189.394304,866.421155 188.126024,865.566639 186.670732,864.939982 C185.215441,864.313325 183.658546,864 182,864 Z M182,885.485249 C180.682921,885.485249 179.451227,885.237032 178.304877,884.740589 C177.158531,884.244147 176.154477,883.568673 175.292681,882.714142 C174.430889,881.85961 173.752036,880.854535 173.256098,879.698882 C172.76016,878.543228 172.512195,877.306212 172.512195,875.987793 C172.512195,874.68565 172.76016,873.456772 173.256098,872.301118 C173.752036,871.145468 174.430889,870.136324 175.292681,869.273652 C176.154477,868.410982 177.158531,867.731439 178.304877,867.234997 C179.451227,866.738555 180.682921,866.490339 182,866.490339 C183.317079,866.490339 184.548773,866.738555 185.695123,867.234997 C186.841469,867.731439 187.845523,868.410982 188.707319,869.273652 C189.569111,870.136324 190.247964,871.145468 190.743902,872.301118 C191.239839,873.456772 191.487803,874.68565 191.487803,875.987793 C191.487803,877.306212 191.239839,878.543228 190.743902,879.698882 C190.247964,880.854535 189.569111,881.85961 188.707319,882.714142 C187.845523,883.568673 186.841469,884.244147 185.695123,884.740589 C184.548773,885.237032 183.317079,885.485249 182,885.485249 Z M182,873.497458 L177.000002,873.497458 L177.000002,878.502545 L182,878.502545 L182,881.627672 L187.609756,875.987793 L182,870.372331 L182,873.497458 Z" id="nav-arrow-white-down" fill="#FFFFFF" transform="translate(182.000000, 876.000000) rotate(-270.000000) translate(-182.000000, -876.000000) "></path>
    </g>
</svg>