<?xml version="1.0" encoding="UTF-8"?>
<svg width="63px" height="84px" viewBox="0 0 63 84" version="1.1" xmlns="http://www.w3.org/2000/svg" xmlns:xlink="http://www.w3.org/1999/xlink">
    <!-- Generator: sketchtool 50.2 (55047) - http://www.bohemiancoding.com/sketch -->
    <title>65F68823-4CE8-40D5-8830-03F7D92DD225</title>
    <desc>Created with sketchtool.</desc>
    <defs></defs>
    <g id="Global" stroke="none" stroke-width="1" fill="none" fill-rule="evenodd">
        <g id="08-Global---Content-Logos-V2" transform="translate(-528.000000, -684.000000)" fill="#D9D9D9" fill-rule="nonzero">
            <g id="pdf-icon" transform="translate(528.000000, 684.000000)">
                <path d="M56.249,83.596 L6.916,83.596 C3.332,83.596 0.416,80.68 0.416,77.096 L0.416,6.861 C0.416,3.277 3.332,0.361 6.916,0.361 L35.642,0.361 C38.794,0.361 43.009,2.107 45.238,4.336 L58.775,17.873 C61.004,20.102 62.75,24.317 62.75,27.469 L62.75,77.096 C62.749,80.68 59.833,83.596 56.249,83.596 Z M6.916,3.361 C4.986,3.361 3.416,4.931 3.416,6.861 L3.416,77.096 C3.416,79.026 4.986,80.596 6.916,80.596 L56.249,80.596 C58.179,80.596 59.749,79.026 59.749,77.096 L59.749,27.469 C59.749,25.136 58.303,21.643 56.653,19.994 L43.116,6.457 C41.467,4.808 37.974,3.361 35.641,3.361 L6.916,3.361 Z" id="Shape"></path>
                <path d="M56.249,23.969 L45.642,23.969 C42.058,23.969 39.142,21.053 39.142,17.469 L39.142,6.861 C39.142,3.848 40.759,2.779 42.145,2.779 C43.165,2.779 44.205,3.303 45.238,4.336 L58.775,17.873 C60.661,19.759 60.432,21.271 60.129,22.005 C59.823,22.738 58.916,23.969 56.249,23.969 Z M42.284,5.827 C42.222,5.987 42.141,6.303 42.141,6.861 L42.141,17.469 C42.141,19.399 43.711,20.969 45.641,20.969 L56.248,20.969 C56.806,20.969 57.122,20.888 57.282,20.826 C57.213,20.669 57.047,20.388 56.652,19.994 L43.116,6.457 C42.722,6.063 42.441,5.896 42.284,5.827 Z" id="Shape"></path>
                <path d="M19.815,68.034 L17.24,68.034 L17.24,71.963 C17.24,72.525 17.108,72.951 16.843,73.241 C16.578,73.531 16.243,73.677 15.84,73.677 C15.417,73.677 15.076,73.533 14.818,73.246 C14.559,72.958 14.429,72.538 14.429,71.982 L14.429,61.284 C14.429,60.665 14.572,60.223 14.855,59.958 C15.139,59.693 15.59,59.561 16.209,59.561 L19.815,59.561 C20.881,59.561 21.703,59.643 22.277,59.807 C22.844,59.965 23.336,60.227 23.749,60.593 C24.163,60.959 24.477,61.407 24.691,61.937 C24.906,62.467 25.013,63.064 25.013,63.727 C25.013,65.141 24.577,66.212 23.706,66.941 C22.836,67.669 21.539,68.034 19.815,68.034 Z M19.134,61.672 L17.24,61.672 L17.24,65.913 L19.134,65.913 C19.797,65.913 20.351,65.844 20.796,65.705 C21.24,65.566 21.58,65.339 21.814,65.023 C22.047,64.708 22.164,64.294 22.164,63.783 C22.164,63.171 21.984,62.672 21.625,62.287 C21.22,61.877 20.39,61.672 19.134,61.672 Z" id="Shape"></path>
                <path d="M29.104,59.561 L32.768,59.561 C33.72,59.561 34.539,59.649 35.22,59.826 C35.901,60.003 36.52,60.334 37.075,60.82 C38.52,62.057 39.243,63.938 39.243,66.462 C39.243,67.295 39.17,68.056 39.025,68.744 C38.879,69.432 38.656,70.052 38.352,70.604 C38.049,71.156 37.662,71.65 37.188,72.085 C36.816,72.42 36.409,72.688 35.966,72.89 C35.525,73.092 35.05,73.234 34.541,73.316 C34.033,73.398 33.461,73.439 32.823,73.439 L29.16,73.439 C28.649,73.439 28.264,73.362 28.005,73.207 C27.746,73.052 27.577,72.834 27.499,72.554 C27.42,72.273 27.381,71.909 27.381,71.461 L27.381,61.284 C27.381,60.678 27.516,60.239 27.787,59.968 C28.059,59.696 28.497,59.561 29.104,59.561 Z M30.192,61.785 L30.192,71.205 L32.322,71.205 C32.789,71.205 33.155,71.192 33.421,71.167 C33.686,71.142 33.96,71.079 34.244,70.978 C34.528,70.877 34.774,70.735 34.982,70.552 C35.922,69.757 36.393,68.387 36.393,66.444 C36.393,65.074 36.186,64.048 35.773,63.367 C35.359,62.685 34.849,62.252 34.244,62.065 C33.639,61.879 32.906,61.786 32.048,61.786 L30.192,61.786 L30.192,61.785 Z" id="Shape"></path>
                <path d="M50.007,61.729 L44.469,61.729 L44.469,65.279 L49.099,65.279 C49.528,65.279 49.848,65.375 50.06,65.568 C50.271,65.761 50.377,66.018 50.377,66.339 C50.377,66.661 50.27,66.917 50.055,67.106 C49.84,67.295 49.522,67.39 49.099,67.39 L44.469,67.39 L44.469,71.963 C44.469,72.544 44.338,72.975 44.076,73.255 C43.814,73.535 43.477,73.676 43.067,73.676 C42.651,73.676 42.311,73.534 42.049,73.25 C41.787,72.966 41.656,72.537 41.656,71.962 L41.656,61.284 C41.656,60.88 41.716,60.55 41.836,60.294 C41.956,60.039 42.144,59.853 42.399,59.736 C42.655,59.619 42.981,59.561 43.378,59.561 L50.005,59.561 C50.453,59.561 50.786,59.66 51.004,59.859 C51.222,60.058 51.331,60.318 51.331,60.64 C51.331,60.968 51.222,61.232 51.004,61.431 C50.786,61.63 50.455,61.729 50.007,61.729 Z" id="Shape"></path>
                <path d="M12.426,54.998 C10.961,54.998 9.782,54.252 9.274,53.002 C8.427,50.924 9.648,48.066 12.624,45.16 C14.954,42.884 18.208,41.011 22.301,39.587 C24.478,35.547 26.481,31.221 27.886,27.523 C24.775,22.684 24.201,16.71 25.289,13.372 C25.993,11.213 27.212,10.401 28.109,10.1 C29.361,9.679 30.639,9.994 31.53,10.952 C32.873,12.396 33.365,15.304 33.036,19.842 C32.905,21.651 32.304,24.08 31.246,27.073 C31.292,27.131 31.339,27.188 31.386,27.245 C32.092,28.108 32.845,29.057 33.634,30.052 C35.318,32.175 37.21,34.56 39.134,36.698 C39.703,36.68 40.251,36.672 40.78,36.672 C47.578,36.672 52.143,38.094 53.634,40.676 C54.27,41.777 54.283,43.016 53.671,44.076 C52.845,45.507 51.058,46.361 48.89,46.361 L48.889,46.361 C48.364,46.361 47.821,46.31 47.276,46.209 C44.544,45.705 41.545,43.649 37.872,39.754 C36.933,39.805 35.95,39.879 34.942,39.977 C32.777,40.185 28.599,40.73 24.369,42.063 C22.549,45.35 18.632,51.989 15.711,53.898 C14.606,54.618 13.472,54.998 12.426,54.998 Z M19.888,43.814 C17.793,44.826 16.064,45.994 14.719,47.307 C12.076,49.889 11.904,51.507 12.052,51.87 C12.095,51.975 12.28,51.997 12.426,51.997 C12.874,51.997 13.473,51.774 14.068,51.386 C15.374,50.533 17.53,47.702 19.888,43.814 Z M42.053,39.691 C44.317,41.79 46.217,42.963 47.819,43.259 C48.185,43.326 48.545,43.361 48.887,43.361 C48.888,43.361 48.888,43.361 48.888,43.361 C50.076,43.361 50.853,42.954 51.072,42.576 C51.112,42.505 51.169,42.409 51.034,42.176 C50.53,41.305 48.074,39.87 42.053,39.691 Z M30.009,30.316 C28.962,32.89 27.687,35.672 26.301,38.409 C29.738,37.558 32.854,37.164 34.653,36.991 C34.887,36.969 35.12,36.947 35.351,36.927 C33.92,35.241 32.544,33.507 31.283,31.917 C30.847,31.367 30.421,30.831 30.009,30.316 Z M29.209,12.916 C29.187,12.916 29.138,12.92 29.063,12.945 C28.725,13.058 28.38,13.566 28.14,14.304 C27.42,16.512 27.706,20.227 29.205,23.65 C29.682,22.028 29.967,20.665 30.042,19.627 C30.408,14.578 29.591,13.275 29.331,12.997 C29.258,12.916 29.231,12.916 29.209,12.916 Z" id="Shape"></path>
            </g>
        </g>
    </g>
</svg>