<?xml version="1.0" encoding="UTF-8"?>
<svg width="91px" height="91px" viewBox="0 0 91 91" version="1.1" xmlns="http://www.w3.org/2000/svg" xmlns:xlink="http://www.w3.org/1999/xlink">
    <!-- Generator: Sketch 51.2 (57519) - http://www.bohemiancoding.com/sketch -->
    <title>Fill 1</title>
    <desc>Created with Sketch.</desc>
    <defs>
        <filter x="-2.9%" y="-1.0%" width="105.3%" height="102.6%" filterUnits="objectBoundingBox" id="filter-1">
            <feOffset dx="0" dy="5" in="SourceAlpha" result="shadowOffsetOuter1"></feOffset>
            <feGaussianBlur stdDeviation="6" in="shadowOffsetOuter1" result="shadowBlurOuter1"></feGaussianBlur>
            <feColorMatrix values="0 0 0 0 0   0 0 0 0 0   0 0 0 0 0  0 0 0 0.192453578 0" type="matrix" in="shadowBlurOuter1" result="shadowMatrixOuter1"></feColorMatrix>
            <feMerge>
                <feMergeNode in="shadowMatrixOuter1"></feMergeNode>
                <feMergeNode in="SourceGraphic"></feMergeNode>
            </feMerge>
        </filter>
    </defs>
    <g id="Global" stroke="none" stroke-width="1" fill="none" fill-rule="evenodd">
        <g id="08-Global---Content-Reports-V2" transform="translate(-881.000000, -1965.000000)" fill="#50AA47" stroke="#50AA47">
            <g id="Group" filter="url(#filter-1)" transform="translate(422.000000, 425.000000)">
                <g id="Group-2" transform="translate(472.000000, 289.000000)">
                    <path d="M32.5,1259 C41.45838,1259 49.11455,1262.17705 55.46875,1268.53125 C61.82295,1274.88545 65,1282.54162 65,1291.5 C65,1300.45838 61.82295,1308.11455 55.46875,1314.46875 C49.11455,1320.82295 41.45838,1324 32.5,1324 C23.54162,1324 15.88545,1320.82295 9.53125,1314.46875 C3.177052,1308.11455 0,1300.45838 0,1291.5 C0,1282.54162 3.177052,1274.88545 9.53125,1268.53125 C15.88545,1262.17705 23.54162,1259 32.5,1259 Z M33.75,1278.375 L33.75,1290.25 L45.46875,1290.25 C45.36458,1285.45831 44.79167,1281.08335 43.75,1277.125 C41.04165,1277.75 37.70835,1278.16667 33.75,1278.375 Z M33.75,1275.875 C37.60419,1275.66667 40.72915,1275.25 43.125,1274.625 C42.08333,1271.08332 40.70313,1268.19272 38.98438,1265.95312 C37.26562,1263.71353 35.52084,1262.33334 33.75,1261.8125 L33.75,1275.875 Z M31.25,1261.8125 C27.49998,1262.75 24.37501,1267.0208 21.875,1274.625 C24.37501,1275.25 27.49998,1275.66667 31.25,1275.875 L31.25,1261.8125 Z M31.25,1278.375 C27.18748,1278.16667 23.8021,1277.75 21.09375,1277.125 C20.05208,1281.08335 19.47917,1285.45831 19.375,1290.25 L31.25,1290.25 L31.25,1278.375 Z M16.875,1290.25 C17.08333,1284.72914 17.65625,1280.14585 18.59375,1276.5 C15.5729,1275.66666 12.50002,1274.36459 9.375,1272.59375 C5.208312,1277.59377 2.968752,1283.47913 2.65625,1290.25 L16.875,1290.25 Z M16.875,1292.75 L2.65625,1292.75 C2.968752,1299.52087 5.208312,1305.40622 9.375,1310.40625 C12.91668,1308.53124 15.98957,1307.22917 18.59375,1306.5 C17.65625,1302.85415 17.08333,1298.27086 16.875,1292.75 Z M19.375,1292.75 C19.47917,1297.54169 20.05208,1301.91665 21.09375,1305.875 C24.32293,1305.14583 27.70832,1304.67708 31.25,1304.46875 L31.25,1292.75 L19.375,1292.75 Z M31.25,1307.125 C27.49998,1307.33333 24.37501,1307.75 21.875,1308.375 C24.37501,1315.97921 27.49998,1320.24999 31.25,1321.1875 L31.25,1307.125 Z M33.75,1321.1875 C35.52084,1320.66666 37.26562,1319.28647 38.98438,1317.04688 C40.70313,1314.80728 42.08333,1311.91668 43.125,1308.375 C40.72915,1307.75 37.60419,1307.33333 33.75,1307.125 L33.75,1321.1875 Z M33.75,1304.46875 C37.08335,1304.57292 40.41665,1305.04166 43.75,1305.875 C44.79167,1301.91665 45.36458,1297.54169 45.46875,1292.75 L33.75,1292.75 L33.75,1304.46875 Z M48.125,1292.75 C47.91667,1297.85419 47.29167,1302.43748 46.25,1306.5 C49.06251,1307.33334 52.18748,1308.63541 55.625,1310.40625 C59.79169,1305.40622 62.03125,1299.52087 62.34375,1292.75 L48.125,1292.75 Z M48.125,1290.25 L62.34375,1290.25 C62.03125,1283.47913 59.79169,1277.59377 55.625,1272.59375 C52.08332,1274.46876 49.01043,1275.77083 46.40625,1276.5 C47.34375,1280.14585 47.91667,1284.72914 48.125,1290.25 Z M53.75,1270.5625 C49.58331,1266.39581 44.84378,1263.68751 39.53125,1262.4375 C41.9271,1264.93751 43.95833,1268.79164 45.625,1274 C48.54168,1273.0625 51.24999,1271.91667 53.75,1270.5625 Z M25.46875,1262.4375 C19.94789,1263.68751 15.20835,1266.39581 11.25,1270.5625 C12.91667,1271.5 15.62498,1272.59374 19.375,1273.84375 C20.93751,1268.84372 22.96874,1265.04168 25.46875,1262.4375 Z M11.25,1312.4375 C15.41669,1316.60419 20.15622,1319.31249 25.46875,1320.5625 C22.86457,1317.85415 20.78126,1314.00003 19.21875,1309 C16.1979,1310.04167 13.54168,1311.18749 11.25,1312.4375 Z M39.53125,1320.5625 C44.84378,1319.31249 49.58331,1316.60419 53.75,1312.4375 C51.24999,1311.08333 48.54168,1309.9375 45.625,1309 C43.95833,1314.20836 41.9271,1318.06249 39.53125,1320.5625 Z" id="Fill-1"></path>
                </g>
            </g>
        </g>
    </g>
</svg>