<?xml version="1.0" encoding="UTF-8"?>
<svg width="554px" height="352px" viewBox="0 0 554 352" version="1.1" xmlns="http://www.w3.org/2000/svg" xmlns:xlink="http://www.w3.org/1999/xlink">
    <!-- Generator: Sketch 48.2 (47327) - http://www.bohemiancoding.com/sketch -->
    <title>world-img</title>
    <desc>Created with Sketch.</desc>
    <defs>
        <circle id="path-1" cx="277" cy="176" r="176"></circle>
        <mask id="mask-2" maskContentUnits="userSpaceOnUse" maskUnits="objectBoundingBox" x="0" y="0" width="352" height="352" fill="white">
            <use xlink:href="#path-1"></use>
        </mask>
    </defs>
    <g id="04-Global---Impact-V2" stroke="none" stroke-width="1" fill="none" fill-rule="evenodd" transform="translate(-716.000000, -1028.000000)">
        <g id="section-impact" transform="translate(130.000000, 1028.000000)">
            <g id="world-img" transform="translate(586.000000, 0.000000)">
                <g id="Page-1" transform="translate(0.000000, 39.000000)" fill="#E1E5ED">
                    <path d="M168.112894,0 L168.748942,4.23625373 L180.378874,3.60061194 C180.378874,3.60061194 180.378874,0.000679104478 179.744181,0.212559701 L179.744181,0.212559701 C179.110166,0.423761194 168.112894,0 168.112894,0 Z M186.298605,6.98934328 L170.651665,6.77746269 L147.178203,18.0017015 L158.174798,25.2022463 L167.902685,25.6253284 L170.862551,37.2733284 L178.475474,39.6026567 L177.841459,55.4869104 L188.414247,62.8993358 L195.180235,49.5569701 L198.563907,49.5569701 L218.653018,39.1795746 C218.653018,39.1795746 212.097239,32.8258731 212.942818,32.6146716 L212.942818,32.6146716 C213.789753,32.402791 225.63057,30.7084254 225.63057,30.7084254 L225.63057,30.7084254 L224.786348,21.6023134 L216.538732,20.1191493 L232.609479,8.89491045 L228.168663,6.56558209 L217.173425,10.166194 L216.749618,4.02437313 L194.12377,3.60061194 L186.298605,6.98934328 Z M119.688411,8.25994776 L128.570042,15.0367313 L124.128548,18.8485448 L126.031949,22.2372761 L135.547594,22.2372761 C135.547594,22.2372761 161.346906,6.77678358 159.232619,6.98866418 L159.232619,6.98866418 C157.116299,7.20122388 137.450994,4.87121642 137.450994,4.87121642 L137.450994,4.87121642 L119.688411,8.25994776 Z M112.075488,13.7661269 C112.075488,13.7661269 116.093853,17.1541791 117.362561,17.1541791 L117.362561,17.1541791 C118.631268,17.1541791 124.976162,16.3073358 124.976162,16.3073358 L124.976162,16.3073358 L115.882289,10.8011567 L112.075488,13.7661269 Z M101.404377,18.6251194 L110.197856,18.9191716 L110.343645,16.718194 L99.353153,14.5158582 L101.404377,18.6251194 Z M87.0437748,17.5989925 L85.577743,20.0933433 L87.7767907,20.8274552 L92.465787,18.9191716 L91.7341273,17.4516269 L87.0437748,17.5989925 Z M73.2676867,24.4966567 L77.3708127,26.5516269 L82.9399706,22.7357388 L81.0358923,20.0933433 L73.2676867,24.4966567 Z M409.467028,22.8192687 L382.98081,37.1144179 L372.037106,37.1144179 L372.037106,35.0777836 L369.02435,35.0777836 L369.02435,37.4322388 L359.984047,37.4322388 L351.599457,47.5977537 L338.41602,47.5977537 L315.736602,61.0983507 L312.247148,61.0983507 L312.247148,57.2865373 L321.1281,52.3630299 L312.405821,47.1210224 L305.109567,47.1210224 L305.109567,44.1037612 L288.141028,44.1037612 L262.288825,66.0225373 L261.813483,74.4400373 L267.523006,76.6647836 L270.853787,74.1228955 L275.929295,82.8588955 L280.368754,82.8588955 L285.919603,71.4227761 L284.016881,68.7226567 L285.126237,64.7519328 L288.299023,63.9580597 L291.946472,58.8742836 L295.11858,58.8742836 L289.567731,69.0404776 L292.422492,73.3283433 L299.083376,73.3283433 L299.083376,75.0756791 L292.105146,75.0756791 L284.016881,86.5111194 L272.122494,86.5111194 L272.122494,80.6355075 L267.681001,80.6355075 L267.363655,86.670709 L262.288825,86.670709 L255.469268,97.7890075 L250.711785,98.1068284 L250.711785,100.806948 L252.614507,100.965858 L252.614507,107.001739 L242.147501,107.47847 L242.622842,123.520276 L247.380326,123.202455 L255.945288,117.961806 L261.813483,109.225127 L271.963143,109.225127 L276.08729,111.608104 L280.210759,117.008343 L278.624027,117.643306 L276.721983,115.737739 L275.293924,117.961806 L277.673344,120.344104 L283.54154,115.896649 L279.576066,107.15997 L282.906847,106.048276 L291.154463,120.979067 L295.276575,118.120037 L295.5946,115.102097 L300.511435,113.513672 L302.573508,102.872104 L311.295787,103.031015 L318.749359,107.796291 L317.480651,111.766336 L307.330313,111.924567 L299.400722,115.579507 L299.559395,120.661246 L310.026401,120.661246 L310.026401,126.220396 L286.872321,125.584754 L285.444262,127.491679 L272.122494,127.64991 L272.914504,121.61403 L257.530663,120.661246 L239.768081,130.032888 L228.032367,149.410455 L228.032367,165.135119 L242.940188,173.87044 L263.240864,174.188261 L273.866543,193.090455 L271.80447,218.186082 L285.602257,240.898731 L297.81399,240.739821 L319.542725,203.095701 L317.639324,197.854373 L318.590685,184.671597 L332.547146,167.040687 L322.397486,166.406403 L307.648338,134.796806 L310.501743,134.796806 L325.569594,164.022746 L345.234898,152.905127 L348.08966,148.298082 C348.08966,148.298082 342.380137,140.833366 342.221464,140.356634 L342.221464,140.356634 C342.063469,139.880582 335.877248,143.057433 335.877248,143.057433 L335.877248,143.057433 L331.754458,134.796806 L338.574015,135.115306 L350.310406,141.627239 L361.094759,141.786149 L377.113293,170.853179 L391.704446,148.934403 L398.047983,146.392515 L404.709545,158.146455 L407.405633,158.146455 L407.563628,168.31197 L422.472127,185.942201 L423.740157,185.30656 L420.410732,176.72947 L413.273829,169.900396 L413.273829,161.481537 L415.969917,161.481537 L419.775361,168.31197 L427.388962,163.387784 L428.022299,157.827955 L423.740157,150.68106 L431.194406,149.727597 L445.627564,140.833366 L449.909028,128.444463 L446.420252,122.408582 L448.006306,120.185194 L447.054267,117.802216 L443.565491,119.549552 L441.979437,115.896649 L447.054267,111.608104 L448.481647,113.03694 L446.578925,115.737739 L447.530965,116.691201 L449.750355,115.419918 L455.301882,123.679187 L459.583346,119.866694 L457.997971,116.372701 L462.596781,108.430575 L467.354942,108.113433 L474.650519,97.7890075 L480.201368,97.4711866 L480.042695,87.782403 L477.822627,86.8296194 L470.367699,86.5111194 L470.843718,80.6355075 L481.786744,74.7578582 L498.598644,74.4400373 L503.356805,66.8170896 L511.286397,66.1814478 L499.391332,82.8588955 L499.391332,91.1181642 L511.286397,82.7006642 L511.286397,76.6647836 L514.457826,72.2166493 L527.462925,71.4227761 L528.256291,66.8170896 L536.502551,66.3396791 L537.45459,59.5099254 L543.957479,59.1927836 L548.556967,61.5750821 L553.473802,54.7453284 L530.477038,42.0386045 L523.498808,46.1675597 L482.897457,36.4787761 L476.553241,37.2733284 L476.711914,42.9913881 L460.376712,42.3564254 L453.240487,35.684903 L436.269914,35.684903 L433.098485,30.920306 L433.415153,22.8192687 L409.467028,22.8192687 Z M93.9311408,22.8817463 C93.4917381,23.1757985 89.388612,24.7900299 89.388612,24.7900299 L89.388612,24.7900299 L84.4053244,24.2032836 L82.2076328,27.1383731 L88.5084504,28.7532836 L96.4231236,28.4592313 C96.4231236,28.4592313 94.4695447,22.8715597 93.9664015,22.8715597 L93.9664015,22.8715597 C93.9535177,22.8708806 93.9419902,22.8749552 93.9311408,22.8817463 L93.9311408,22.8817463 Z M117.231689,24.9373955 L119.282913,27.2857388 L132.912534,27.4324254 L127.636989,25.083403 L117.964705,23.4691716 L117.231689,24.9373955 Z M103.016198,25.5241418 L106.387665,27.1383731 L109.757097,26.6983134 L108.145275,23.7632239 L103.016198,25.5241418 Z M69.3598507,34.944 L74.4346805,34.944 L79.5101885,31.1315075 L71.2632509,28.8021791 L69.3598507,34.944 Z M122.648277,36.0020448 L129.416299,39.6026567 L138.085687,39.3921343 L148.870717,46.8032015 L139.989087,53.7918657 L153.944869,57.8162388 L161.34555,48.7094478 L149.926504,39.6026567 L140.411537,35.1558806 L137.450994,30.920306 L124.340791,30.7084254 L122.648277,36.0020448 Z M107.000659,35.5796418 L115.670047,32.402791 L102.772086,31.3440672 L107.000659,35.5796418 Z M81.8360392,33.4608358 L80.778896,37.9089701 L88.8135912,42.7801866 L104.251001,40.6613806 L96.2142717,32.4021119 L81.8360392,33.4608358 Z M108.902024,37.0614478 L109.537395,44.2619925 L93.2544064,49.3444104 L57.7292411,39.8145373 L51.59659,45.7451567 L17.1278898,38.3320522 L1.90204406,47.6507239 L5.49728029,53.3681045 L1.6904798,53.3681045 L1.6904798,58.0281194 L5.9210869,58.0281194 L0,63.9580597 L12.899317,72.4285299 L0.421772338,78.7815522 L11.6299315,77.5109478 L25.5870698,69.6754403 L42.3454002,69.6754403 L68.0375741,95.2477985 L68.0375741,111.924567 L80.2493072,125.267612 L88.1795765,138.927119 L90.2409718,140.992955 L90.2409718,137.974336 L85.6421616,128.126642 L94.8411383,138.451067 L94.8411383,145.598642 L105.466818,152.110575 L117.519878,152.110575 L125.450147,156.399119 L130.048957,165.611851 L138.454568,165.611851 L134.489772,190.865709 L152.411706,208.81444 L145.908818,264.882664 L150.032965,272.665201 L157.645209,272.665201 L157.645209,257.259037 L165.098781,244.870134 L172.711704,244.870134 L172.711704,236.610187 L177.310514,236.610187 L189.840272,216.596978 L193.963062,216.596978 L210.616289,187.688858 L183.655408,172.918336 L170.650308,159.09856 L134.489772,159.09856 L134.489772,149.568687 L126.560181,149.568687 L126.560181,141.151187 L123.546747,141.151187 L120.216644,145.915784 L114.031102,145.915784 L110.224979,139.880582 L110.224979,130.35003 L131.476338,130.35003 L131.476338,135.115306 L136.551846,135.115306 L136.551846,126.379306 L155.741809,100.806948 L158.755244,100.806948 L156.375824,104.61944 L160.341976,104.61944 L165.892147,99.5363433 L160.97599,94.2950149 L156.8532,94.2950149 L159.231941,91.2770746 L172.395035,90.8010224 L175.40847,86.670709 L165.098781,68.4048358 L162.402693,68.4048358 L162.402693,71.740597 L158.913917,71.740597 L146.860857,63.004597 L138.1379,63.004597 L138.1379,86.0350672 L134.173104,86.0350672 L134.173104,82.2232537 L114.823789,70.628903 L114.823789,62.2100448 L118.471239,57.7625896 L121.961371,57.7625896 L121.961371,53.5806642 L119.477525,53.5806642 L119.477525,51.6744179 L132.375486,49.9800522 L132.375486,43.8389104 L118.842154,43.8389104 L115.457804,36.6383657 L108.902024,37.0614478 Z M127.828211,61.0983507 L135.124465,61.0983507 L135.124465,54.268597 L127.828211,54.268597 L127.828211,61.0983507 Z M248.649711,76.5058731 L250.394438,88.1002239 L250.235765,94.4532463 L254.359234,94.4532463 L257.84801,90.0064701 L253.407873,76.5058731 L248.649711,76.5058731 Z M241.036788,86.9885299 L241.036788,93.5004627 L247.538999,89.5304179 L248.332365,85.8768358 L244.684916,85.0822836 L241.036788,86.9885299 Z M171.919694,93.6593731 L173.50507,96.9944552 L180.324627,96.3601716 L176.359831,90.3249701 L171.919694,93.6593731 Z M476.659701,106.736888 L475.390994,107.054709 L475.390994,111.183664 L477.400176,110.972463 L477.718201,109.066896 L478.985552,110.3375 L483.320585,107.58509 L483.637931,104.406881 L476.977726,101.970933 L476.659701,106.736888 Z M475.180108,112.87803 L471.90154,118.702709 L470.421268,119.23241 L469.575011,121.561739 L461.75188,122.726403 L460.483173,125.162351 L467.460725,124.843851 L467.354942,127.59694 L470.209704,127.59694 C470.209704,127.59694 470.738614,126.221075 471.267525,126.114455 L471.267525,126.114455 C471.795758,126.009194 475.919226,125.902575 475.919226,125.902575 L475.919226,125.902575 L479.831131,112.773448 L475.180108,112.87803 Z M284.175554,120.820157 L284.016881,123.838097 L286.23695,122.090761 L286.23695,119.708463 L284.175554,120.820157 Z M463.231474,126.538216 L463.231474,128.868224 L465.874671,127.914761 L466.192017,126.009194 L463.231474,126.538216 Z M459.531133,126.538216 L459.425351,131.091612 L461.223647,131.091612 L462.175009,130.032888 L461.857662,126.432955 L459.531133,126.538216 Z M128.78025,141.786149 L130.524977,144.169127 L133.379738,143.216343 L144.322764,147.504209 L147.01953,143.374575 L134.965792,137.814746 L128.78025,141.786149 Z M447.371613,140.621485 L447.371613,143.480515 L450.119914,143.480515 L450.119914,139.880582 L447.371613,140.621485 Z M146.702184,148.298082 L151.459667,150.205007 L155.741809,146.869246 L150.350311,144.486948 L146.702184,148.298082 Z M440.552056,158.225231 L443.090149,162.196634 L447.926969,156.001843 L444.913535,151.078336 L440.552056,158.225231 Z M443.406818,165.29403 L445.230881,170.058627 L448.560984,167.99347 L447.292277,163.308328 L443.406818,165.29403 Z M381.396113,167.99347 L381.396113,171.329231 L383.298835,171.01209 L384.567542,167.359187 L381.396113,167.99347 Z M427.388962,177.682254 L426.992279,183.004396 L432.146446,188.48341 L441.424759,179.42959 L442.772125,172.918336 L438.727993,170.614813 L427.388962,177.682254 Z M402.436585,172.705776 L418.507332,196.212978 L419.564475,195.682597 L416.180803,182.34091 L404.974,171.752993 L402.436585,172.705776 Z M442.296783,180.859784 L441.028076,182.131067 L441.028076,192.085381 L443.565491,192.085381 L443.565491,188.272888 L445.258005,188.272888 L445.258005,191.44906 L447.371613,191.44906 L447.371613,185.30656 L445.468891,185.30656 L445.468891,183.612873 L452.235557,183.612873 C452.235557,183.612873 452.87025,180.859784 452.235557,180.859784 L452.235557,180.859784 L442.296783,180.859784 Z M459.84848,184.247836 L462.17433,188.48341 L468.73011,188.69597 L472.113104,194.413351 L478.87977,198.438403 L481.205621,195.896515 L491.779087,200.555172 C491.779087,200.555172 495.796095,197.802082 495.161403,197.378321 L495.161403,197.378321 C494.527388,196.95456 471.478411,184.035955 471.478411,184.035955 L471.478411,184.035955 L469.998818,185.731679 L465.34576,185.30656 L464.711745,183.612873 L459.84848,184.247836 Z M423.264137,192.096925 L421.362093,193.567187 C421.440752,193.883649 421.362093,197.298187 421.362093,197.298187 L421.362093,197.298187 L436.031905,197.298187 L437.935305,196.742679 L437.935305,194.837791 L435.199209,192.096925 L423.264137,192.096925 Z M476.342355,202.885179 L476.131469,209.449403 L468.73011,203.731343 L470.843718,200.979612 L462.596781,200.555172 L460.694059,204.578866 L454.350521,204.792104 L437.855968,214.74506 L427.283858,214.109418 L432.992703,242.064075 L448.852563,241.853552 L451.177736,238.887903 L463.231474,239.099104 C463.231474,239.099104 468.729432,242.911597 468.940996,242.911597 L468.940996,242.911597 L471.478411,241.005351 L480.994056,248.417097 L488.396093,247.570254 L497.487931,239.734746 L498.123302,222.156127 L488.819222,216.015664 L485.012421,206.908194 L482.051878,206.06203 L480.994056,200.13209 L476.342355,202.885179 Z M330.327077,201.507276 L320.494086,215.485284 L320.811432,226.285761 L325.252247,226.285761 L332.864492,211.991291 L332.864492,201.507276 L330.327077,201.507276 Z M527.939623,246.722731 L526.459351,249.687701 L530.053909,254.560276 L531.745067,253.712075 L536.819897,244.817164 L532.802889,244.182201 L530.68928,238.887903 L525.190644,238.464142 L527.939623,246.722731 Z M483.743714,252.018388 L488.606301,257.524567 L491.145072,257.524567 L491.145072,252.018388 L483.743714,252.018388 Z M522.441665,254.347716 L518.001528,256.253284 L513.771599,264.301351 L520.538264,264.936313 L528.362073,256.888246 L526.670237,252.44147 L522.441665,254.347716 Z" id="Fill-1"></path>
                </g>
                <use id="Oval-5" stroke="#50AA47" mask="url(#mask-2)" stroke-width="32" stroke-dasharray="1,2.5" xlink:href="#path-1"></use>
            </g>
        </g>
    </g>
</svg>